<svg width="450" height="150" viewBox="0 0 450 150" fill="none" xmlns="http://www.w3.org/2000/svg">
<path d="M40.711 42H25V137.638H70.2228V123.566H40.711V42Z" fill="#F8B9B6"/>
<path d="M125.69 82.5779C123.686 79.3903 120.84 76.8862 117.151 75.0634C113.463 73.242 109.75 72.3303 106.017 72.3303C101.187 72.3303 96.7704 73.2186 92.7635 74.9945C88.7545 76.7703 85.3173 79.2089 82.4483 82.3048C79.5793 85.402 77.3469 88.9772 75.7538 93.0289C74.1586 97.0834 73.3628 101.343 73.3628 105.804C73.3628 110.36 74.1586 114.639 75.7538 118.646C77.3462 122.656 79.5786 126.208 82.4483 129.303C85.3173 132.401 88.7552 134.837 92.7635 136.612C96.7704 138.388 101.187 139.277 106.017 139.277C109.75 139.277 113.463 138.365 117.151 136.544C120.84 134.723 123.686 132.219 125.69 129.03V137.637H140.583V73.9689H125.69V82.5779ZM124.324 113.592C123.413 116.052 122.138 118.192 120.499 120.014C118.859 121.837 116.878 123.293 114.556 124.386C112.233 125.479 109.658 126.025 106.836 126.025C104.012 126.025 101.461 125.479 99.1848 124.386C96.9076 123.293 94.9497 121.837 93.3104 120.014C91.6704 118.192 90.4173 116.052 89.5531 113.592C88.6855 111.132 88.2552 108.537 88.2552 105.805C88.2552 103.072 88.6855 100.476 89.5531 98.0165C90.4173 95.5572 91.6704 93.4179 93.3104 91.5952C94.9497 89.7745 96.9069 88.3158 99.1848 87.2227C101.461 86.1296 104.012 85.5834 106.836 85.5834C109.659 85.5834 112.233 86.1296 114.556 87.2227C116.878 88.3158 118.859 89.7738 120.499 91.5952C122.139 93.4179 123.413 95.5572 124.324 98.0165C125.234 100.476 125.69 103.072 125.69 105.805C125.69 108.537 125.234 111.132 124.324 113.592Z" fill="#F8B9B6"/>
<path d="M246.74 82.5779C244.736 79.3903 241.89 76.8862 238.201 75.0634C234.512 73.242 230.8 72.3303 227.066 72.3303C222.237 72.3303 217.82 73.2186 213.813 74.9945C209.804 76.7703 206.367 79.2089 203.498 82.3048C200.629 85.402 198.397 88.9772 196.803 93.0289C195.208 97.0834 194.412 101.343 194.412 105.804C194.412 110.36 195.208 114.639 196.803 118.646C198.396 122.656 200.628 126.208 203.498 129.303C206.367 132.401 209.805 134.837 213.813 136.612C217.82 138.388 222.237 139.277 227.066 139.277C230.8 139.277 234.512 138.365 238.201 136.544C241.89 134.723 244.736 132.219 246.74 129.03V137.637H261.632V73.9689H246.74V82.5779ZM245.375 113.592C244.463 116.052 243.188 118.192 241.55 120.014C239.91 121.837 237.928 123.293 235.606 124.386C233.284 125.479 230.708 126.025 227.886 126.025C225.062 126.025 222.512 125.479 220.235 124.386C217.958 123.293 216 121.837 214.361 120.014C212.721 118.192 211.468 116.052 210.604 113.592C209.736 111.132 209.306 108.537 209.306 105.805C209.306 103.072 209.736 100.476 210.604 98.0165C211.468 95.5572 212.721 93.4179 214.361 91.5952C216 89.7745 217.957 88.3158 220.235 87.2227C222.512 86.1296 225.062 85.5834 227.886 85.5834C230.709 85.5834 233.284 86.1296 235.606 87.2227C237.928 88.3158 239.91 89.7738 241.55 91.5952C243.189 93.4179 244.463 95.5572 245.375 98.0165C246.284 100.476 246.741 103.072 246.741 105.805C246.74 108.537 246.283 111.132 245.375 113.592Z" fill="#F8B9B6"/>
<path d="M425 42H410.108V137.638H425V42Z" fill="#F8B9B6"/>
<path d="M152.333 137.638H167.224V88.6235H192.774V73.971H152.333V137.638Z" fill="#F8B9B6"/>
<path d="M321.338 73.971L302.621 122.726L283.903 73.971H268.82L293.263 137.638H311.979L336.421 73.971H321.338Z" fill="#F8B9B6"/>
<path d="M368.901 72.3338C350.665 72.3338 336.23 87.32 336.23 105.806C336.23 126.24 350.2 139.277 370.809 139.277C382.343 139.277 389.707 134.867 398.704 125.263L388.643 117.479C388.638 117.486 381.05 127.449 369.72 127.449C356.551 127.449 351.006 116.832 351.006 111.339H400.411C403.006 90.3049 389.178 72.3338 368.901 72.3338ZM351.045 100.272C351.16 99.0469 352.875 84.1621 368.783 84.1621C384.69 84.1621 386.623 99.0449 386.734 100.272H351.045Z" fill="#F8B9B6"/>
<path d="M38.76 139.4C34.6213 139.4 31.1653 138.824 28.392 137.672C26.9413 137.117 25.8107 136.52 25 135.88L27.88 130.76H28.52C29.0747 131.229 29.8427 131.72 30.824 132.232C32.872 133.171 35.304 133.64 38.12 133.64C40.6373 133.64 42.536 133.064 43.816 131.912C45.1387 130.76 45.8 129.203 45.8 127.24C45.8 126.003 45.4373 124.936 44.712 124.04C43.9867 123.101 43.0693 122.312 41.96 121.672C40.8507 120.989 39.336 120.2 37.416 119.304C34.856 118.109 32.7653 117 31.144 115.976C29.5227 114.909 28.136 113.523 26.984 111.816C25.8747 110.109 25.32 107.997 25.32 105.48C25.32 103.219 25.9173 101.171 27.112 99.336C28.3067 97.4587 30.0347 95.9867 32.296 94.92C34.5573 93.8533 37.2453 93.32 40.36 93.32C44.1147 93.32 47.3787 93.9173 50.152 95.112C51.3893 95.5813 52.4987 96.1573 53.48 96.84L50.6 101.96H49.96C49.4907 101.576 48.7653 101.107 47.784 100.552C45.736 99.5707 43.4747 99.08 41 99.08C39.1227 99.08 37.5227 99.6773 36.2 100.872C34.92 102.024 34.28 103.347 34.28 104.84C34.28 106.077 34.6427 107.165 35.368 108.104C36.0933 109 37.0107 109.789 38.12 110.472C39.2293 111.112 40.744 111.88 42.664 112.776C45.224 113.971 47.3147 115.101 48.936 116.168C50.5573 117.192 51.9227 118.557 53.032 120.264C54.184 121.971 54.76 124.083 54.76 126.6C54.76 129.075 54.1413 131.293 52.904 133.256C51.7093 135.176 49.896 136.691 47.464 137.8C45.0747 138.867 42.1733 139.4 38.76 139.4Z" fill="#1F2937"/>
<path d="M72.69 139.4C69.0207 139.4 66.1193 138.397 63.986 136.392C61.8953 134.387 60.85 131.763 60.85 128.52V112.52H56.69V108.68L66.29 99.08H69.81V106.76H77.17V112.52H69.81V128.52C69.81 130.227 70.13 131.507 70.77 132.36C71.41 133.213 72.2633 133.64 73.33 133.64C74.61 133.64 75.8687 133.213 77.106 132.36C77.6607 131.976 78.2153 131.549 78.77 131.08H79.41L82.29 136.2C81.1807 136.925 80.2207 137.459 79.41 137.8C77.106 138.867 74.866 139.4 72.69 139.4Z" fill="#1F2937"/>
<path d="M95.4125 139.4C91.6578 139.4 88.7352 138.504 86.6445 136.712C84.5965 134.877 83.5725 132.467 83.5725 129.48C83.5725 126.28 84.7245 123.784 87.0285 121.992C89.3752 120.157 93.0232 119.24 97.9725 119.24H102.452V118.28C102.452 116.019 101.962 114.397 100.98 113.416C99.9992 112.392 98.4632 111.88 96.3725 111.88C94.5805 111.88 92.9378 112.307 91.4445 113.16C90.8472 113.459 90.2498 113.885 89.6525 114.44H89.0125L86.1325 109.32C87.1565 108.637 88.1592 108.104 89.1405 107.72C91.9138 106.653 94.5378 106.12 97.0125 106.12C99.9992 106.12 102.581 106.653 104.757 107.72C106.933 108.744 108.575 110.173 109.685 112.008C110.837 113.843 111.412 115.933 111.412 118.28V138.76H105.012L104.372 134.92H104.052C103.327 135.859 102.602 136.605 101.876 137.16C100.084 138.653 97.9298 139.4 95.4125 139.4ZM97.0125 133.32C98.3352 133.32 99.6365 132.68 100.916 131.4C101.514 130.803 102.026 130.163 102.452 129.48V125H97.9725C94.3458 125 92.5325 126.493 92.5325 129.48C92.5325 130.632 92.9165 131.571 93.6845 132.296C94.4952 132.979 95.6045 133.32 97.0125 133.32Z" fill="#1F2937"/>
<path d="M118.775 106.76H125.175L125.815 110.6H126.135C126.562 109.96 127.287 109.213 128.311 108.36C130.316 106.867 132.471 106.12 134.775 106.12C135.884 106.12 136.972 106.227 138.039 106.44C138.722 106.611 139.234 106.717 139.575 106.76L138.295 113.16H137.655C137.271 113.117 136.802 113.011 136.247 112.84C135.308 112.627 134.284 112.52 133.175 112.52C131.767 112.52 130.423 113.16 129.143 114.44C128.716 114.952 128.247 115.592 127.735 116.36V138.76H118.775V106.76Z" fill="#1F2937"/>
<path d="M155.225 139.4C151.556 139.4 148.654 138.397 146.521 136.392C144.43 134.387 143.385 131.763 143.385 128.52V112.52H139.225V108.68L148.825 99.08H152.345V106.76H159.705V112.52H152.345V128.52C152.345 130.227 152.665 131.507 153.305 132.36C153.945 133.213 154.798 133.64 155.865 133.64C157.145 133.64 158.404 133.213 159.641 132.36C160.196 131.976 160.75 131.549 161.305 131.08H161.945L164.825 136.2C163.716 136.925 162.756 137.459 161.945 137.8C159.641 138.867 157.401 139.4 155.225 139.4Z" fill="#1F2937"/>
<path d="M182.108 139.4C171.441 139.4 166.108 133.853 166.108 122.76C166.108 117.299 167.345 113.16 169.82 110.344C172.294 107.528 175.75 106.12 180.188 106.12C184.582 106.12 188.017 107.485 190.492 110.216C193.009 112.947 194.268 116.915 194.268 122.12V123.72L192.348 125.64H175.068C175.068 130.973 177.628 133.64 182.748 133.64C184.54 133.64 186.182 133.213 187.676 132.36C188.273 132.061 188.87 131.635 189.468 131.08H190.108L192.988 136.2C191.793 136.925 190.769 137.459 189.916 137.8C187.356 138.867 184.753 139.4 182.108 139.4ZM185.308 119.88C185.308 117.32 184.795 115.357 183.771 113.992C182.79 112.584 181.595 111.88 180.188 111.88C178.779 111.88 177.564 112.584 176.54 113.992C175.558 115.357 175.068 117.32 175.068 119.88H185.308Z" fill="#1F2937"/>
<path d="M199.998 106.76H206.398L207.038 110.6H207.358C207.784 109.96 208.51 109.213 209.534 108.36C211.539 106.867 213.694 106.12 215.998 106.12C217.107 106.12 218.195 106.227 219.262 106.44C219.944 106.611 220.456 106.717 220.798 106.76L219.518 113.16H218.878C218.494 113.117 218.024 113.011 217.47 112.84C216.531 112.627 215.507 112.52 214.398 112.52C212.99 112.52 211.646 113.16 210.366 114.44C209.939 114.952 209.47 115.592 208.958 116.36V138.76H199.998V106.76Z" fill="#1F2937"/>
<path d="M242.835 138.76V93.96H251.795V113.8L263.635 93.96H273.555L260.115 115.4L274.515 138.76H264.275L251.795 117.64V138.76H242.835Z" fill="#1F2937"/>
<path d="M282.512 102.6C281.232 102.6 280.102 102.131 279.12 101.192C278.182 100.211 277.712 99.08 277.712 97.8C277.712 96.52 278.182 95.4107 279.12 94.472C280.102 93.4907 281.232 93 282.512 93C283.792 93 284.902 93.4907 285.84 94.472C286.822 95.4107 287.312 96.52 287.312 97.8C287.312 99.08 286.822 100.211 285.84 101.192C284.902 102.131 283.792 102.6 282.512 102.6ZM278.033 138.76V106.76H286.992V138.76H278.033Z" fill="#1F2937"/>
<path d="M307.17 139.4C303.501 139.4 300.599 138.397 298.466 136.392C296.375 134.387 295.33 131.763 295.33 128.52V112.52H291.17V108.68L300.77 99.08H304.29V106.76H311.65V112.52H304.29V128.52C304.29 130.227 304.61 131.507 305.25 132.36C305.89 133.213 306.743 133.64 307.81 133.64C309.09 133.64 310.349 133.213 311.586 132.36C312.141 131.976 312.695 131.549 313.25 131.08H313.89L316.77 136.2C315.661 136.925 314.701 137.459 313.89 137.8C311.586 138.867 309.346 139.4 307.17 139.4Z" fill="#1F2937"/>
<path d="M354.093 20.1048C354.076 20.0868 354.053 20.0766 354.035 20.0595C353.999 20.031 353.966 19.9992 353.927 19.9767C353.901 19.9617 353.871 19.9536 353.843 19.942C353.807 19.9269 353.772 19.9066 353.734 19.8965C353.701 19.8877 353.667 19.8881 353.635 19.8835C353.597 19.8774 353.562 19.868 353.524 19.8686L342.357 19.8817C342.07 19.8816 341.804 20.0348 341.661 20.2839L336.066 29.948C336.046 29.9805 336.038 30.0174 336.023 30.0514C336.011 30.0818 335.994 30.111 335.985 30.1437C335.975 30.1816 335.975 30.2221 335.97 30.2612C335.966 30.2912 335.958 30.3215 335.958 30.3512C335.958 30.3958 335.967 30.4416 335.976 30.4857C335.979 30.5095 335.979 30.5351 335.986 30.5586C336.004 30.627 336.031 30.6923 336.067 30.7546L341.359 39.9198L336.697 47.9738L326.344 30.043C326.308 29.9806 326.265 29.9245 326.215 29.8746C326.198 29.8566 326.175 29.8464 326.157 29.8294C326.121 29.8009 326.088 29.769 326.049 29.7465C326.024 29.7315 325.994 29.7234 325.966 29.7119C325.929 29.6967 325.894 29.6765 325.856 29.6664C325.823 29.6576 325.79 29.658 325.757 29.6533C325.719 29.6473 325.684 29.6379 325.646 29.6385L314.48 29.6516C314.192 29.6515 313.927 29.8046 313.783 30.0538L308.188 39.7178C308.169 39.7504 308.16 39.7873 308.146 39.8212C308.133 39.8517 308.116 39.8809 308.107 39.9136C308.097 39.9514 308.097 39.9919 308.092 40.0311C308.088 40.0611 308.08 40.0913 308.08 40.1211C308.08 40.1657 308.09 40.2114 308.098 40.2556C308.101 40.2793 308.101 40.305 308.108 40.3285C308.127 40.3969 308.154 40.4622 308.19 40.5245L324.763 69.2312C324.907 69.4804 325.175 69.6346 325.463 69.6347L347.798 69.6076C347.846 69.6071 347.894 69.5969 347.94 69.5891C347.962 69.5853 347.986 69.5864 348.008 69.5801C348.076 69.562 348.14 69.5358 348.201 69.5008C348.261 69.4657 348.316 69.4236 348.366 69.3735C348.379 69.3595 348.388 69.3416 348.401 69.3275C348.434 69.2892 348.467 69.2508 348.494 69.2079L359.685 49.8789C359.83 49.6288 359.83 49.3222 359.685 49.0713L354.393 39.9062L359.754 30.6455C359.9 30.3954 359.9 30.0888 359.755 29.8379L354.23 20.2685C354.186 20.2108 354.141 20.1556 354.093 20.1048ZM341.748 58.3537L332.499 58.4335L337.386 49.9915L342.749 40.7299L352.046 40.7183L348.614 46.5964L341.748 58.3537ZM347.462 31.1486L352.057 39.1058L348.148 39.1106L342.749 39.1172L338.155 31.16L342.063 31.1552L347.462 31.1486ZM342.82 21.4956L352.122 21.4853L347.462 29.5359L338.16 29.5461L342.82 21.4956ZM333.054 54.2589L331.096 57.6415L320.977 40.1149L323.682 35.4426L325.64 32.06L335.758 49.585L333.054 54.2589ZM314.939 31.2698L324.241 31.2595L319.581 39.3101L310.279 39.3204L314.939 31.2698ZM310.272 40.9327L314.181 40.9278L319.58 40.9212L330.395 59.6542L330.396 59.6558L330.397 59.6574C330.413 59.6845 330.436 59.7055 330.454 59.7292C330.478 59.76 330.498 59.7952 330.527 59.8232L330.528 59.8248C330.552 59.8473 330.581 59.8646 330.607 59.8837C330.636 59.9051 330.663 59.9324 330.694 59.9504C330.694 59.9504 330.695 59.952 330.697 59.951C330.725 59.9667 330.758 59.9755 330.788 59.9877C330.822 60.0022 330.853 60.0185 330.888 60.028L330.891 60.0287C330.921 60.0368 330.955 60.0364 330.987 60.041C331.024 60.0455 331.059 60.0549 331.096 60.0552C331.097 60.0543 331.097 60.0543 331.1 60.055C331.101 60.054 331.102 60.0556 331.104 60.0547L341.754 59.9627L346.393 67.9982L325.915 68.0271L310.272 40.9327ZM358.045 49.4773L347.786 67.1963L343.146 59.1592L350.775 46.0923L353.448 41.5153L358.045 49.4773ZM358.115 30.2455L353.453 38.2995L348.859 30.3423L351.564 25.67L353.523 22.2873L358.117 30.2445L358.115 30.2455Z" fill="#F8B9B6"/>
</svg>
